<svg width="192" height="192" viewBox="0 0 192 192" fill="none" xmlns="http://www.w3.org/2000/svg">
<rect width="192" height="192" fill="white"/>
<path d="M116.87 59.07C114.86 49.5904 109.114 43.1271 106.529 41.8345C100.712 38.9261 98.7731 43.558 96.1876 43.558C93.6021 43.558 91.6633 38.9258 85.8462 41.8345C83.261 43.1271 77.5156 49.5904 75.5048 59.07C73.494 68.5497 96.1876 60.7935 96.1876 60.7935C96.1876 60.7935 118.881 68.5497 116.87 59.07Z" fill="#FFD24F"/>
<path d="M96.1875 87.4113C118.081 87.4113 135.829 80.8521 135.829 72.7609C135.829 64.6698 118.081 58.1106 96.1875 58.1106C74.2939 58.1106 56.5457 64.6698 56.5457 72.7609C56.5457 80.8521 74.2939 87.4113 96.1875 87.4113Z" fill="#FFBE1E"/>
<path d="M72.8631 83.3681C70.2795 82.7217 68.5869 84.1028 68.5869 86.8154C68.5869 90.4061 72.0614 99.2034 75.7139 93.7095C79.3665 88.2156 72.8631 83.3681 72.8631 83.3681Z" fill="#FFE1B2"/>
<path d="M119.073 83.3681C121.893 82.7217 123.741 84.1028 123.741 86.8154C123.741 90.4061 119.948 99.2034 115.961 93.7095C111.974 88.2156 119.073 83.3681 119.073 83.3681Z" fill="#FFE1B2"/>
<path d="M77.2519 114.709C81.1064 112.227 80.6753 104.841 80.6753 103.117H111.699C111.699 104.841 111.221 112.227 115.076 114.709L96.1874 135.865L77.2519 114.709Z" fill="#FFD7A3"/>
<path d="M108.252 122.077L115.076 114.709C111.221 112.227 111.699 104.841 111.699 103.117H80.6753C82.9011 109.517 97.6238 120.497 108.252 122.077Z" fill="#FDC88E"/>
<path d="M135.829 151.039C138.685 151.039 141 148.724 141 145.869V135.599C141 128.015 135.09 119.919 127.868 117.608L117.085 114.158C111.283 118.594 102.992 124.645 96.1875 124.645C89.3827 124.645 81.0919 118.594 75.2905 114.158L64.5075 117.608C57.2846 119.919 51.375 128.015 51.375 135.599V145.869C51.375 148.724 53.6899 151.039 56.5457 151.039H135.829Z" fill="#FF6953"/>
<path d="M140.888 146.935H138.212V143.311H141V140.672H138.212V137.049H141V135.599C141 135.204 140.975 134.807 140.943 134.41H138.212V130.787H140.239C139.966 129.892 139.627 129.009 139.222 128.148H138.212V126.258C137.252 124.659 136.079 123.178 134.748 121.886H131.95V119.609C130.663 118.752 129.292 118.064 127.868 117.608L121.665 115.623H119.425V114.906L117.085 114.157C116.988 114.231 116.885 114.309 116.786 114.384V115.623H115.145C113.698 116.704 112.142 117.822 110.524 118.894V121.885H106.9V121.125C103.86 122.837 100.74 124.147 97.8203 124.524H97.9995V128.147H94.3758V124.524H94.5549C91.635 124.147 88.5146 122.837 85.4747 121.125V121.885H81.8509V118.893C80.2328 117.821 78.6774 116.703 77.2298 115.623H75.5885V114.384C75.4903 114.309 75.3871 114.231 75.2902 114.157L72.9499 114.906V115.623H70.7099L64.5072 117.607C63.0826 118.063 61.7122 118.751 60.4251 119.609V121.885H57.6269C56.2963 123.178 55.1237 124.658 54.1632 126.258V128.148H53.1537C52.7488 129.009 52.4093 129.891 52.1364 130.786H54.1632V134.41H51.4318C51.4004 134.807 51.375 135.204 51.375 135.599V137.049H54.1629V140.672H51.375V143.311H54.1629V146.935H51.4876C51.7029 147.96 52.2239 148.87 52.9484 149.574H54.1629V150.432C54.8791 150.807 55.6813 151.039 56.5457 151.039H56.8019V149.574H60.4256V151.039H63.0645V149.574H66.6878V151.039H69.3264V149.574H72.9502V151.039H75.5888V149.574H79.2126V151.039H81.8512V149.574H85.475V151.039H88.1139V149.574H91.7376V151.039H94.3763V149.574H98V151.039H100.639V149.574H104.262V151.039H106.901V149.574H110.525V151.039H113.163V149.574H116.787V151.039H119.426V149.574H123.05V151.039H125.688V149.574H129.312V151.039H131.951V149.574H135.575V151.039H135.831C136.695 151.039 137.498 150.807 138.214 150.432V149.574H139.428C140.151 148.87 140.672 147.96 140.888 146.935ZM60.4254 146.935H56.8016V143.311H60.4254V146.935ZM60.4254 140.673H56.8016V137.049H60.4254V140.673ZM60.4254 134.41H56.8016V130.787H60.4254V134.41ZM60.4254 128.148H56.8016V124.524H60.4254V128.148ZM66.6878 146.935H63.064V143.311H66.6878V146.935ZM66.6878 140.673H63.064V137.049H66.6878V140.673ZM66.6878 134.41H63.064V130.787H66.6878V134.41ZM66.6878 128.148H63.064V124.524H66.6878V128.148ZM66.6878 121.886H63.064V118.262H66.6878V121.886ZM72.9502 146.935H69.3264V143.311H72.9502V146.935V146.935ZM72.9502 140.673H69.3264V137.049H72.9502V140.673V140.673ZM72.9502 134.41H69.3264V130.787H72.9502V134.41V134.41ZM72.9502 128.148H69.3264V124.524H72.9502V128.148V128.148ZM72.9502 121.886H69.3264V118.262H72.9502V121.886V121.886ZM79.2123 146.935H75.5885V143.311H79.2123V146.935ZM79.2123 140.673H75.5885V137.049H79.2123V140.673ZM79.2123 134.41H75.5885V130.787H79.2123V134.41ZM79.2123 128.148H75.5885V124.524H79.2123V128.148ZM79.2123 121.886H75.5885V118.262H79.2123V121.886ZM85.4747 146.935H81.8509V143.311H85.4747V146.935ZM85.4747 140.673H81.8509V137.049H85.4747V140.673ZM85.4747 134.41H81.8509V130.787H85.4747V134.41ZM85.4747 128.148H81.8509V124.524H85.4747V128.148ZM91.7371 146.935H88.1134V143.311H91.7371V146.935ZM91.7371 140.673H88.1134V137.049H91.7371V140.673ZM91.7371 134.41H88.1134V130.787H91.7371V134.41ZM91.7371 128.148H88.1134V124.524H91.7371V128.148ZM97.9992 146.935H94.3755V143.311H97.9992V146.935ZM97.9992 140.673H94.3755V137.049H97.9992V140.673ZM97.9992 134.41H94.3755V130.787H97.9992V134.41ZM104.262 146.935H100.638V143.311H104.262V146.935ZM104.262 140.673H100.638V137.049H104.262V140.673ZM104.262 134.41H100.638V130.787H104.262V134.41ZM104.262 128.148H100.638V124.524H104.262V128.148ZM110.524 146.935H106.9V143.311H110.524V146.935ZM110.524 140.673H106.9V137.049H110.524V140.673ZM110.524 134.41H106.9V130.787H110.524V134.41ZM110.524 128.148H106.9V124.524H110.524V128.148ZM116.786 146.935H113.163V143.311H116.786V146.935ZM116.786 140.673H113.163V137.049H116.786V140.673ZM116.786 134.41H113.163V130.787H116.786V134.41ZM116.786 128.148H113.163V124.524H116.786V128.148ZM116.786 121.886H113.163V118.262H116.786V121.886ZM123.049 146.935H119.425V143.311H123.049V146.935ZM123.049 140.673H119.425V137.049H123.049V140.673ZM123.049 134.41H119.425V130.787H123.049V134.41ZM123.049 128.148H119.425V124.524H123.049V128.148ZM123.049 121.886H119.425V118.262H123.049V121.886ZM129.311 146.935H125.687V143.311H129.311V146.935ZM129.311 140.673H125.687V137.049H129.311V140.673ZM129.311 134.41H125.687V130.787H129.311V134.41ZM129.311 128.148H125.687V124.524H129.311V128.148ZM129.311 121.886H125.687V118.262H129.311V121.886ZM135.573 146.935H131.95V143.311H135.573V146.935ZM135.573 140.673H131.95V137.049H135.573V140.673ZM135.573 134.41H131.95V130.787H135.573V134.41ZM135.573 128.148H131.95V124.524H135.573V128.148Z" fill="#E95F43"/>
<path d="M96.1874 124.645L88.9959 131.836C88.2471 132.585 87.0063 132.488 86.3832 131.631L73.7811 114.303L77.7954 110.289C78.4437 109.64 79.4859 109.613 80.1672 110.226L96.1874 124.645Z" fill="#FFBE1E"/>
<path d="M96.1876 124.645L103.379 131.836C104.128 132.585 105.369 132.488 105.992 131.631L118.594 114.303L114.58 110.289C113.931 109.64 112.889 109.613 112.208 110.226L96.1876 124.645Z" fill="#FFBE1E"/>
<path d="M73.1326 71.7135C72.7295 74.1518 72.7075 77.0835 72.7075 80.5674C72.7075 94.3699 80.4411 111.592 96.1879 111.592C111.935 111.592 119.668 94.3699 119.668 80.5674C119.668 77.0833 119.646 74.1518 119.243 71.7135C112.926 69.5848 104.914 68.3085 96.1881 68.3085C87.4626 68.3085 79.4492 69.5846 73.1326 71.7135Z" fill="#FFE1B2"/>
<path d="M119.756 74.5017C118.377 72.7314 116.897 70.9123 116.897 70.9123V72.6358C117.324 88.2555 111.766 95.042 111.766 95.042L104.684 95.8349C99.1613 96.4533 93.5875 96.4533 88.0645 95.8349L80.9825 95.042C80.9825 95.042 75.4244 88.2555 75.8519 72.6358V70.9123C75.8519 70.9123 74.3723 72.7311 72.9927 74.5017C72.6333 76.039 72.0574 77.7103 72.0574 79.5449C72.0574 93.3473 80.3175 113.247 96.3744 113.247C112.431 113.247 120.317 93.3473 120.317 79.5449C120.317 77.7103 120.116 76.039 119.756 74.5017ZM91.2438 99.1357H101.505C102.912 99.1357 104.118 99.9929 104.643 101.216C102.749 102.047 99.841 102.583 96.5632 102.583C93.1024 102.583 90.0606 101.984 88.1829 101.073C88.7397 99.9296 89.8948 99.1357 91.2438 99.1357Z" fill="#A7795E"/>
<path d="M97.1032 97.6023C97.1032 95.3264 94.8949 94.8112 93.4407 95.3628C90.7745 96.3741 87.8391 99.1953 85.3615 97.4506C85.3615 97.4506 86.2232 101.092 87.6772 101.092C90.5857 101.092 97.1032 101.471 97.1032 97.6023Z" fill="#543D38"/>
<path d="M96.4061 97.6023C96.4061 95.3264 98.6144 94.8112 100.069 95.3628C102.735 96.3741 105.67 99.1953 108.148 97.4506C108.148 97.4506 107.286 101.092 105.832 101.092C102.924 101.092 96.4061 101.471 96.4061 97.6023Z" fill="#543D38"/>
<path d="M125.488 116.622L118.594 114.416V135.624C118.594 136.413 118.07 137.11 117.305 137.299C111.47 138.736 104.152 139.596 96.1878 139.596C88.2239 139.596 80.9054 138.736 75.071 137.299C74.3048 137.11 73.7815 136.413 73.7815 135.624V114.416L66.8873 116.622V151.039H125.488V116.622H125.488Z" fill="#C55F54"/>
<path d="M72.1731 83.5911L76.8273 84.4492C76.8273 84.4492 78.6449 74.2571 79.6192 70.0228C77.0772 70.5301 74.6798 71.1404 72.4943 71.857C72.0799 74.2953 72.0574 77.2271 72.0574 80.7109C72.0576 81.657 72.0985 82.6199 72.1731 83.5911Z" fill="#543D38"/>
<path d="M120.202 83.5911L115.547 84.4492C115.547 84.4492 113.73 74.2571 112.756 70.0228C115.298 70.5301 117.695 71.1404 119.88 71.857C120.295 74.2953 120.317 77.2271 120.317 80.7109C120.317 81.657 120.276 82.6199 120.202 83.5911Z" fill="#543D38"/>
<path d="M106.314 74.2332L110.449 69.5256C106.059 68.7493 101.25 68.3085 96.1876 68.3085C93.1065 68.3085 90.1213 68.4753 87.2614 68.775C89.965 68.59 100.604 70.0228 106.314 74.2332Z" fill="#543D38"/>
</svg>
